<svg width="13" height="21" viewBox="0 0 13 21" fill="none" xmlns="http://www.w3.org/2000/svg">
<path d="M11.5562 11.3586C10.8009 10.515 9.90796 10.6919 8.87877 9.76245C8.36813 9.30127 8.41671 6.43112 8.41671 6.43112C8.41671 6.43112 8.3784 3.94251 8.90287 3.43258C9.26541 3.08098 9.90204 2.99001 10.2729 2.63611C10.2764 2.63362 10.2788 2.63131 10.2814 2.62805C10.3615 2.55013 10.4265 2.45839 10.4745 2.34958C10.4804 2.33806 10.4869 2.32923 10.4911 2.31791C10.5237 2.235 10.5412 2.1377 10.5505 2.03291C10.5531 2.00604 10.5663 1.98339 10.5663 1.95653C10.5663 1.95173 10.5637 1.9477 10.563 1.94271C10.5637 1.93541 10.5663 1.92985 10.5663 1.92256C10.5663 1.90471 10.5523 1.89569 10.5505 1.87937C10.5077 1.38883 10.0975 1 9.58214 1H3.41769C2.90231 1 2.49197 1.38883 2.44952 1.87937C2.44774 1.89549 2.43353 1.90452 2.43353 1.92256C2.43353 1.92985 2.43609 1.93541 2.43688 1.94271C2.43609 1.9477 2.43353 1.95173 2.43353 1.95653C2.43353 1.98339 2.44695 2.00604 2.44952 2.03291C2.4586 2.13751 2.47618 2.235 2.50876 2.31791C2.51291 2.32923 2.51962 2.33806 2.52554 2.34958C2.57313 2.45839 2.6383 2.55013 2.71847 2.62805C2.72103 2.63131 2.7234 2.63362 2.72676 2.63611C3.0976 2.9902 3.73423 3.08098 4.09677 3.43258C4.62143 3.94251 4.58293 6.43112 4.58293 6.43112C4.58293 6.43112 4.63151 9.30127 4.12086 9.76245C3.09187 10.6919 2.19894 10.515 1.44383 11.3586C0.909098 11.9563 1.00704 13.0214 1.00704 13.0214H6.07616V17.3628L6.45529 20H6.54553L6.92486 17.3628V13.0214H11.993C11.993 13.0214 12.0907 11.9563 11.5562 11.3586Z" fill="#C91D22" stroke="#C91D22"/>
</svg>
