<svg width="68" height="57" viewBox="0 0 68 57" fill="none" xmlns="http://www.w3.org/2000/svg">
<g clip-path="url(#clip0)">
<path d="M22.2725 51.7537C21.9341 49.767 20.2216 48.2501 18.1666 48.2501C16.5258 48.2501 15.1041 49.2169 14.4249 50.6179C14.2907 50.5208 14.1474 50.4345 13.9999 50.3568V36.4192C13.9999 35.9528 13.6266 35.5742 13.1666 35.5742C12.7066 35.5742 12.3333 35.9528 12.3333 36.4192V49.9402C10.495 49.9402 9 51.4562 9 53.3205C9 55.1847 10.495 56.7007 12.3333 56.7007H21.5C22.8783 56.7007 24 55.5632 24 54.1655C24 53.0407 23.2741 52.085 22.2725 51.7537ZM21.5 55.0105H12.3333C11.4142 55.0105 10.6666 54.2526 10.6666 53.3204C10.6666 52.3882 11.4142 51.6303 12.3333 51.6303C13.1108 51.6303 13.8017 52.0883 14.0524 52.7712C14.1933 53.154 14.5833 53.3796 14.9816 53.3069C15.3783 53.2342 15.6666 52.8843 15.6666 52.4754C15.6666 51.0776 16.7883 49.9402 18.1666 49.9402C19.5449 49.9402 20.6666 51.0776 20.6666 52.4754C20.6666 52.9418 21.0399 53.3204 21.4999 53.3204C21.9591 53.3204 22.3332 53.6998 22.3332 54.1654C22.3332 54.631 21.9592 55.0105 21.5 55.0105Z" fill="#145471" stroke="white" stroke-width="0.57"/>
<path d="M58.1667 12.7598H42.3333C41.8733 12.7598 41.5 13.1384 41.5 13.6048C41.5 14.0712 41.8733 14.4497 42.3333 14.4497H57.3333V32.6894L34.5892 9.62752C34.4258 9.46186 34.2116 9.37997 33.9975 9.37997C33.7833 9.37997 33.5691 9.46196 33.4058 9.62752L10.6667 32.6886V14.4497H19.8334C20.2934 14.4497 20.6667 14.0712 20.6667 13.6048V10.2249C20.6667 9.75853 20.2934 9.37997 19.8334 9.37997H19V7.68999H24V9.37997H23.1667C22.7067 9.37997 22.3334 9.75853 22.3334 10.2249V13.6048C22.3334 14.0712 22.7067 14.4497 23.1667 14.4497H25.6667C26.1267 14.4497 26.5 14.0712 26.5 13.6048C26.5 13.1384 26.1267 12.7598 25.6667 12.7598H24V11.0699H24.8333C25.2933 11.0699 25.6666 10.6913 25.6666 10.2249V6.84494C25.6666 6.37856 25.2933 6 24.8333 6H18.1667C17.7067 6 17.3334 6.37856 17.3334 6.84494V10.2248C17.3334 10.6912 17.7067 11.0698 18.1667 11.0698H19V12.7597H9.8333C9.6125 12.7597 9.4 12.8485 9.24414 13.0073C9.0875 13.1654 9 13.3809 9 13.6048L9.00332 34.7292C9.00332 35.0714 9.20664 35.379 9.51836 35.51C9.62168 35.553 9.7292 35.5742 9.83672 35.5742C10.0542 35.5742 10.2676 35.4881 10.4259 35.3267L33.9975 11.4171L57.5774 35.3266C57.7366 35.488 57.9499 35.5741 58.1666 35.5741C58.2741 35.5741 58.3824 35.553 58.4858 35.5099C58.7966 35.3789 58.9999 35.0705 58.9999 34.7291V13.6048C59 13.1384 58.6267 12.7598 58.1667 12.7598Z" fill="#145471" stroke="white" stroke-width="0.57"/>
<path d="M55.6667 49.9396V36.4192C55.6667 35.9528 55.2934 35.5742 54.8334 35.5742C54.3734 35.5742 54.0001 35.9528 54.0001 36.4192V50.3562C53.8526 50.4339 53.7093 50.5201 53.5751 50.6173C52.8959 49.2163 51.4742 48.2496 49.8334 48.2496C47.7784 48.2496 46.0659 49.7664 45.7275 51.753C44.7259 52.0843 44 53.04 44 54.1647C44 54.463 44.06 54.7444 44.1542 55.0097H29.8333C29.3733 55.0097 29 55.3883 29 55.8547C29 56.3211 29.3733 56.6997 29.8333 56.6997H46.5H49.8333H55.6666C57.505 56.6998 59 55.1838 59 53.3197C59 51.4557 57.505 49.9396 55.6667 49.9396ZM55.6667 55.0097H49.8334H46.5C46.0408 55.0097 45.6667 54.6304 45.6667 54.1647C45.6667 53.6991 46.0408 53.3197 46.5 53.3197C46.96 53.3197 47.3333 52.9412 47.3333 52.4748C47.3333 51.0771 48.455 49.9397 49.8333 49.9397C51.2116 49.9397 52.3333 51.0771 52.3333 52.4748C52.3333 52.8837 52.6217 53.2336 53.0183 53.3063C53.4141 53.3797 53.8066 53.1533 53.9475 52.7705C54.1982 52.0878 54.8892 51.6298 55.6666 51.6298C56.5857 51.6298 57.3333 52.3877 57.3333 53.3198C57.3333 54.252 56.5858 55.0097 55.6667 55.0097Z" fill="#145471" stroke="white" stroke-width="0.57"/>
<path d="M37.3333 22.8997C37.3333 21.0355 35.8382 19.5195 33.9999 19.5195C32.1616 19.5195 30.6666 21.0356 30.6666 22.8997C30.6666 24.7638 32.1616 26.2798 33.9999 26.2798C35.8383 26.2798 37.3333 24.7638 37.3333 22.8997ZM32.3332 22.8997C32.3332 21.9676 33.0807 21.2095 33.9999 21.2095C34.9191 21.2095 35.6666 21.9675 35.6666 22.8997C35.6666 23.8317 34.9192 24.5898 33.9999 24.5898C33.0808 24.5897 32.3332 23.8317 32.3332 22.8997Z" fill="#145471" stroke="white" stroke-width="0.57"/>
<path d="M49.8333 34.7305H43.1666C42.7067 34.7305 42.3333 35.109 42.3333 35.5754V44.8706H41.5C41.0401 44.8706 40.6667 45.2492 40.6667 45.7156C40.6667 46.182 41.0401 46.5605 41.5 46.5605H51.5C51.96 46.5605 52.3333 46.182 52.3333 45.7156C52.3333 45.2492 51.96 44.8706 51.5 44.8706H50.6667V35.5754C50.6667 35.109 50.2934 34.7305 49.8333 34.7305ZM49 44.8706H44V41.4906H49V44.8706ZM49 39.8005H44V36.4205H49V39.8005Z" fill="#145471" stroke="white" stroke-width="0.57"/>
<path d="M42.3333 52.4753C42.3333 52.0089 41.9599 51.6303 41.5 51.6303H39V35.5754C39 35.109 38.6266 34.7305 38.1667 34.7305H29.8334C29.3734 34.7305 29.0001 35.109 29.0001 35.5754V51.6303H26.5001C26.0401 51.6303 25.6668 52.0089 25.6668 52.4753V55.8552C25.6668 56.3216 26.0401 56.7002 26.5001 56.7002C26.9601 56.7002 27.3334 56.3216 27.3334 55.8552V53.3202H41.5C41.9599 53.3203 42.3333 52.9418 42.3333 52.4753ZM37.3333 43.1804H36.5C36.04 43.1804 35.6667 43.559 35.6667 44.0254C35.6667 44.4918 36.04 44.8703 36.5 44.8703H37.3333V51.6303H30.6666V36.4204H37.3333V43.1804Z" fill="#145471" stroke="white" stroke-width="0.57"/>
<path d="M24.8333 34.7305H18.1667C17.7068 34.7305 17.3334 35.109 17.3334 35.5754V44.8705H16.5C16.0401 44.8705 15.6667 45.2491 15.6667 45.7155C15.6667 46.1819 16.0401 46.5605 16.5 46.5605H26.5C26.96 46.5605 27.3333 46.182 27.3333 45.7156C27.3333 45.2492 26.96 44.8706 26.5 44.8706H25.6667V35.5755C25.6667 35.109 25.2934 34.7305 24.8333 34.7305ZM24 44.8705H19V41.4905H24V44.8705ZM24 39.8005H19V36.4205H24V39.8005Z" fill="#145471" stroke="white" stroke-width="0.57"/>
</g>
<defs>
<clipPath id="clip0">
<rect width="68" height="56.6991" fill="white"/>
</clipPath>
</defs>
</svg>
