
<svg width="68" height="57" viewBox="0 0 68 57" fill="none" xmlns="http://www.w3.org/2000/svg">
<g clip-path="url(#clip0)">
<path d="M59.9999 29.4999V27.6666C59.9981 26.91 59.5485 26.2323 58.8681 25.9607L53.7451 13.5559C53.6061 13.2187 53.2867 13 52.9333 13C52.5799 13 52.2606 13.2187 52.1215 13.5559L46.9985 25.9607C46.318 26.2323 45.8683 26.91 45.8666 27.6666H41.4499V24C41.4488 22.9879 40.6586 22.1678 39.6832 22.1666H38.7999V20.3332C39.7752 20.332 40.5655 19.5119 40.5666 18.4999V16.6665C40.5649 15.9099 40.1152 15.2322 39.4348 14.9605L34.3117 2.55591C34.1728 2.21871 33.8535 2 33.5 2C33.1465 2 32.8272 2.21871 32.6882 2.55591L27.5651 14.9607C26.8846 15.2324 26.4349 15.91 26.4333 16.6667V18.5C26.4344 19.512 27.2247 20.3322 28.2 20.3333V22.1667H27.3167C26.3414 22.1679 25.5511 22.9879 25.55 24.0001V27.6667H21.1333C21.1315 26.9101 20.6818 26.2324 20.0014 25.9608L14.8785 13.556C14.7395 13.2188 14.4201 13.0001 14.0667 13.0001C13.7133 13.0001 13.3939 13.2188 13.2549 13.556L8.13184 25.9607C7.45143 26.2323 7.00176 26.91 7 27.6666V29.4999C7.00114 30.512 7.79138 31.3321 8.7667 31.3333V33.1667C7.79138 33.1678 7.00114 33.9879 7 34.9999V36.8333C7.00114 37.8453 7.79138 38.6655 8.7667 38.6667V55.1666C8.76784 56.1787 9.55818 56.9988 10.5334 57H56.4666C57.4418 56.9988 58.2322 56.1788 58.2333 55.1666V38.6667C59.2085 38.6655 59.9989 37.8454 60 36.8333V34.9999C59.9989 33.9879 59.2086 33.1678 58.2333 33.1666V31.3332C59.2085 31.3321 59.9988 30.512 59.9999 29.4999ZM52.9332 16.2441L56.8938 25.8333H48.9725L52.9332 16.2441ZM33.5 5.24413L37.4606 14.8333H29.5392L33.5 5.24413ZM28.2 16.6666H38.7999L38.8012 18.5H28.2V16.6666ZM37.0332 20.3333V22.1667H29.9666V20.3333H37.0332ZM27.3167 24H39.6833V32.2499H38.3714L34.2191 26.2174C34.0453 25.9892 33.7804 25.8561 33.5001 25.8561C33.2197 25.8561 32.9549 25.9892 32.781 26.2174L28.6286 32.2499H27.3167V24ZM36.2 32.2499H30.7999L33.5 28.3272L36.2 32.2499ZM14.0667 16.2441L18.0273 25.8333H10.106L14.0667 16.2441ZM8.7667 27.6666H19.3667L19.3673 28.58L19.3667 28.5833L19.3673 28.5866L19.3679 29.4999H8.7667V27.6666ZM17.6 31.3333V33.1667H10.5333V31.3333H17.6ZM8.7667 36.8333V34.9999H19.3667L19.3679 36.8333H8.7667ZM17.6 55.1665H10.5333V38.6666H17.6V55.1665ZM23.7833 55.1665H19.3666V42.3333H23.7833V55.1665ZM23.7833 34.0833V40.4999H19.3666V38.6666C20.3418 38.6654 21.1321 37.8452 21.1333 36.8332V34.9999C21.1321 33.9879 20.3419 33.1678 19.3666 33.1666V31.3332C20.3418 31.332 21.1321 30.512 21.1333 29.4998H25.55V32.2498C24.5747 32.2511 23.7844 33.0713 23.7833 34.0833ZM37.0332 55.1665H29.9666V52.4165C29.9666 50.3915 31.5485 48.7499 33.4998 48.7499C35.4512 48.7499 37.0331 50.3915 37.0331 52.4165V55.1665H37.0332ZM41.4499 55.1665H38.7999V52.4165C38.7999 49.379 36.4271 46.9165 33.5 46.9165C30.5728 46.9165 28.2 49.379 28.2 52.4165V55.1665H25.55V34.0833H41.4499V55.1665ZM47.6332 55.1665H43.2165V42.3333H47.6332V55.1665ZM47.6332 40.4999H43.2165V34.0833C43.2154 33.0713 42.4251 32.2511 41.4498 32.2499V29.4999H45.8665C45.8677 30.512 46.658 31.3321 47.6332 31.3333V33.1667C46.658 33.1679 45.8677 33.9879 45.8665 35V36.8334C45.8677 37.8454 46.658 38.6656 47.6332 38.6668V40.4999ZM49.3999 55.1665V38.6666H56.4666L56.4678 55.1665H49.3999ZM58.2346 36.8333H47.6332V34.9999H58.2332L58.2346 36.8333ZM49.3999 33.1666V31.3332H56.4666V33.1666H49.3999ZM47.6332 29.4999V27.6666H58.2332L58.2346 29.4999H47.6332Z" fill="#145471" stroke="white" stroke-width="0.8"/>
</g>
<defs>
<clipPath id="clip0">
<rect width="68" height="56.6991" fill="white"/>
</clipPath>
</defs>
</svg>
