<svg width="68" height="57" viewBox="0 0 68 57" fill="none" xmlns="http://www.w3.org/2000/svg">
<g clip-path="url(#clip0)">
<path d="M66.2229 22.4389C66.4138 22.6002 66.6635 22.6735 66.8985 22.6735C67.06 22.6735 67.2216 22.6442 67.3831 22.5562C67.765 22.3655 68 21.9842 68 21.5736V15.7071C68 15.3698 67.8384 15.0472 67.5741 14.8418L49.6415 0.747713C48.3784 -0.234915 46.6307 -0.234915 45.3676 0.747713L38.6117 6.05684V3.97425C38.6117 3.37294 38.1123 2.8743 37.5101 2.8743H32.8104C32.2082 2.8743 31.7089 3.37294 31.7089 3.97425V11.4686L27.435 14.8418C27.1706 15.0472 27.0091 15.3698 27.0091 15.7071V21.5736C27.0091 21.9989 27.2441 22.3802 27.6259 22.5562C28.0078 22.7469 28.4631 22.6882 28.7862 22.4242L29.359 21.9842V32.7051L19.0929 24.6388C17.8298 23.6562 16.0821 23.6562 14.819 24.6388L0.425918 35.9757C0.161555 36.181 0 36.5036 0 36.841V42.7074C0 43.1327 0.234989 43.514 0.616847 43.69C0.763715 43.7634 0.939957 43.8074 1.10151 43.8074C1.35119 43.8074 1.58618 43.734 1.77711 43.5727L2.34989 43.1327V54.5136H1.10151C0.499352 54.5136 0 55.0123 0 55.6136C0 56.2149 0.499352 56.7135 1.10151 56.7135H66.8985C67.5006 56.7135 68 56.2149 68 55.6136C68 55.0123 67.5006 54.5136 66.8985 54.5136H65.6501V21.9989L66.2229 22.4389ZM33.9266 5.07421H36.4233V7.77277L33.9266 9.73803V5.07421ZM29.2268 16.2498L46.7335 2.47831C47.1888 2.12633 47.8203 2.12633 48.2756 2.47831L65.797 16.2498V19.315L48.1875 5.47019C47.9819 5.30887 47.7469 5.23554 47.5119 5.23554C47.2769 5.23554 47.0272 5.30887 46.8363 5.47019L29.2268 19.315V16.2498ZM2.20302 37.3689L16.1849 26.3694C16.6402 26.0174 17.2717 26.0174 17.727 26.3694L29.359 35.521V38.5862L17.6242 29.3613C17.2276 29.0533 16.6549 29.0533 16.2583 29.3613L2.20302 40.4342V37.3689ZM4.55292 41.3875L16.9633 31.6198L29.3736 41.3875V54.5136H24.527V41.5341C24.527 40.9328 24.0276 40.4342 23.4255 40.4342H10.5011C9.89892 40.4342 9.39957 40.9328 9.39957 41.5341V54.5136H4.55292V41.3875ZM11.6026 47.3126H22.324V49.8058H11.6026V47.3126ZM22.324 45.1126H11.6026V42.6194H22.324V45.1126ZM11.6026 52.0057H22.324V54.4989H11.6026V52.0057ZM43.473 46.3006C43.4436 46.3006 43.4289 46.3006 43.3996 46.3006C43.1058 46.3006 42.8268 46.4179 42.6212 46.6232C42.4156 46.8286 42.2981 47.1072 42.2981 47.4006C42.2981 47.6939 42.4156 47.9725 42.6212 48.1779C42.8268 48.3832 43.1058 48.5005 43.3996 48.5005C43.4289 48.5005 43.4436 48.5005 43.473 48.5005V54.5136H38.6263V40.2875H43.473V46.3006ZM63.4471 54.4989H45.676V39.1729C45.676 38.5716 45.1767 38.0729 44.5745 38.0729H37.5248C36.9227 38.0729 36.4233 38.5716 36.4233 39.1729V54.4989H31.5767V20.2683L47.5119 7.72877L63.4471 20.2683V54.4989Z" fill="white" stroke="#15526E" stroke-width="0.8"/>
<path d="M50.4492 49.659H57.4989C58.1011 49.659 58.6004 49.1603 58.6004 48.559V39.1727C58.6004 38.5714 58.1011 38.0728 57.4989 38.0728H50.4492C49.8471 38.0728 49.3477 38.5714 49.3477 39.1727V48.559C49.3477 49.175 49.8471 49.659 50.4492 49.659ZM51.5508 47.4591V43.7925H56.3974V47.4591H51.5508ZM56.3974 40.2727V41.5926H51.5508V40.2727H56.3974Z" fill="white" stroke="#15526E" stroke-width="0.8"/>
<path d="M50.4492 33.2332H57.4989C58.1011 33.2332 58.6004 32.7345 58.6004 32.1332V22.7469C58.6004 22.1456 58.1011 21.647 57.4989 21.647H50.4492C49.8471 21.647 49.3477 22.1456 49.3477 22.7469V32.1332C49.3477 32.7492 49.8471 33.2332 50.4492 33.2332ZM51.5508 31.0333V27.3667H56.3974V31.0333H51.5508ZM56.3974 23.8469V25.1668H51.5508V23.8469H56.3974Z" fill="white" stroke="#15526E" stroke-width="0.8"/>
<path d="M44.5745 21.647H37.5248C36.9227 21.647 36.4233 22.1456 36.4233 22.7469V32.1332C36.4233 32.7345 36.9227 33.2332 37.5248 33.2332H44.5745C45.1767 33.2332 45.676 32.7345 45.676 32.1332V22.7469C45.676 22.1456 45.1767 21.647 44.5745 21.647ZM43.473 23.8469V25.1668H38.6263V23.8469H43.473ZM38.6263 31.0333V27.3667H43.473V31.0333H38.6263Z" fill="white" stroke="#15526E" stroke-width="0.8"/>
</g>
<defs>
<clipPath id="clip0">
<rect width="68" height="56.6991" fill="white"/>
</clipPath>
</defs>
</svg>
