<svg width="15" height="11" viewBox="0 0 15 11" fill="none" xmlns="http://www.w3.org/2000/svg">
<path d="M15 9.16662C15 9.48815 14.9075 9.78622 14.7593 10.0485L10.0232 4.86719L14.708 0.859517C14.8902 1.14229 15 1.47446 15 1.83341V9.16662ZM7.50002 5.80796L14.0187 0.230998C13.7512 0.0878106 13.45 0 13.125 0H1.87499C1.54965 0 1.24832 0.0878106 0.981903 0.230998L7.50002 5.80796ZM9.31738 5.47056L7.80848 6.7623C7.72022 6.83747 7.61032 6.87502 7.50002 6.87502C7.38965 6.87502 7.27975 6.83747 7.19149 6.7623L5.68225 5.4705L0.886223 10.718C1.1737 10.8944 1.5106 11 1.87496 11H13.125C13.4893 11 13.8264 10.8944 14.1138 10.718L9.31738 5.47056ZM0.292079 0.859486C0.10987 1.14226 0 1.47443 0 1.83341V9.16665C0 9.48818 0.092063 9.78625 0.240792 10.0485L4.97635 4.86631L0.292079 0.859486Z" fill="#A5A5A5"/>
</svg>
