<svg width="71" height="48" viewBox="0 0 71 48" fill="none" xmlns="http://www.w3.org/2000/svg">
<path d="M5.76577 23.7583C2.21921 21.2574 0.00261325 17.8003 0.00261325 13.9755C0.00261325 6.25219 8.94289 0 20.0259 0C26.6757 0 32.5866 2.28021 36.207 5.7373C32.3649 6.69352 28.8923 8.23818 25.8629 10.3713C20.1736 14.3433 17.0704 19.7863 17.0704 25.5972C17.0704 26.3327 17.1443 27.1419 17.2182 27.8774C16.1838 27.8038 15.1494 27.5832 14.1149 27.4361C11.9722 28.7601 8.20402 30.8196 4.06637 31.9229C2.8103 32.2907 1.77589 30.8196 2.58864 29.7163C4.06637 27.6567 5.17468 25.1559 5.76577 23.7583Z" fill="black"/>
<path d="M45.5133 8.31189C59.1823 8.31189 70.1914 16.0352 70.1914 25.5974C70.1914 30.3049 67.4576 34.5711 63.0983 37.7339C63.7633 39.4257 65.1671 42.515 66.9404 45.0159C67.9009 46.3399 66.6449 48.1052 65.0932 47.7374C60.0689 46.4135 55.4141 43.839 52.7542 42.2208C50.4637 42.7357 48.0254 42.9564 45.5133 42.9564C31.8443 42.9564 20.8352 35.2331 20.8352 25.6709C20.7613 16.0352 31.8443 8.31189 45.5133 8.31189ZM35.1692 30.8933H55.7835C56.5224 30.8933 57.0396 30.3049 57.0396 29.6429C57.0396 28.9073 56.4485 28.3924 55.7835 28.3924H35.2431C34.5042 28.3924 33.987 28.9809 33.987 29.6429C33.9131 30.3049 34.5042 30.8933 35.1692 30.8933ZM35.1692 22.8023H55.7835C56.5224 22.8023 57.0396 22.2138 57.0396 21.5518C57.0396 20.8163 56.4485 20.3014 55.7835 20.3014H35.2431C34.5042 20.3014 33.987 20.8898 33.987 21.5518C33.9131 22.2138 34.5042 22.8023 35.1692 22.8023Z" fill="black"/>
</svg>
