<svg width="18" height="17" viewBox="0 0 18 17" fill="none" xmlns="http://www.w3.org/2000/svg">
<path d="M17.6783 14.7213C17.3116 15.7717 15.8563 16.6429 14.6955 16.8973C13.9013 17.0688 12.864 17.2057 9.37204 15.737C4.90546 13.8597 2.02906 9.25524 1.80487 8.9565C1.59019 8.65775 0 6.51837 0 4.30575C0 2.09313 1.10762 1.01573 1.55409 0.553156C1.92077 0.173464 2.52682 0 3.10818 0C3.29627 0 3.46536 0.00963698 3.61735 0.0173465C4.06382 0.0366202 4.288 0.0636038 4.58248 0.778659C4.94915 1.67489 5.84209 3.88751 5.94848 4.11494C6.05678 4.34237 6.16507 4.65075 6.01308 4.94949C5.87059 5.25787 5.7452 5.39471 5.52101 5.65684C5.29683 5.91896 5.08404 6.11941 4.85986 6.4008C4.65467 6.64558 4.42289 6.9077 4.68127 7.36063C4.93965 7.80393 5.83259 9.28222 7.1473 10.4695C8.84388 12.0017 10.2194 12.4913 10.7115 12.6995C11.0781 12.8536 11.5151 12.817 11.783 12.5279C12.1231 12.1559 12.5429 11.5392 12.9704 10.9321C13.2744 10.4965 13.6581 10.4425 14.0609 10.5967C14.4713 10.7412 16.6428 11.8302 17.0893 12.0557C17.5358 12.2831 17.8303 12.3911 17.9385 12.5819C18.0449 12.7727 18.0449 13.6689 17.6783 14.7213Z" fill="#A5A5A5"/>
</svg>
