<svg width="32" height="24" viewBox="0 0 32 24" fill="none" xmlns="http://www.w3.org/2000/svg">
<path d="M6.76098 1.0036C3.58189 1.0036 1 3.58549 1 6.76458V17.5664C1 20.7455 3.58189 23.3274 6.76098 23.3274H25.4842C28.6633 23.3274 31.2452 20.7455 31.2452 17.5664V6.76458C31.2452 3.58549 28.6633 1.0036 25.4842 1.0036H6.76098ZM6.76098 2.44385H25.4842C27.8903 2.44385 29.8049 4.35847 29.8049 6.76458V17.5664C29.8049 19.9725 27.8903 21.8872 25.4842 21.8872H6.76098C4.35487 21.8872 2.44025 19.9725 2.44025 17.5664V6.76458C2.44025 4.35847 4.35487 2.44385 6.76098 2.44385ZM13.1858 6.76458C13.0048 6.77879 12.8357 6.86087 12.7126 6.99441C12.5895 7.12795 12.5214 7.30308 12.522 7.48471V16.8463C12.5194 17.0177 12.5781 17.1843 12.6874 17.3163C12.7967 17.4483 12.9495 17.537 13.1183 17.5664C13.2888 17.5969 13.4646 17.565 13.6134 17.4764L21.5348 12.7956C21.6446 12.7325 21.7359 12.6415 21.7993 12.5319C21.8628 12.4223 21.8962 12.2978 21.8962 12.1711C21.8962 12.0444 21.8628 11.92 21.7993 11.8103C21.7359 11.7007 21.6446 11.6097 21.5348 11.5466L13.6134 6.86583C13.4849 6.78836 13.3354 6.75297 13.1858 6.76458ZM13.9622 8.75615L19.7344 12.1655L13.9622 15.5861V8.75615Z" fill="white" stroke="white" stroke-width="0.4"/>
</svg>
