<svg width="51" height="55" viewBox="0 0 51 55" fill="none" xmlns="http://www.w3.org/2000/svg">
<path d="M12.0668 10.2978C9.11578 12.7736 7.30553 16.2512 6.96969 20.0875L6.96969 20.0875C6.63425 23.9254 7.81335 27.6638 10.2895 30.6145C13.0365 33.8886 17.0656 35.7663 21.3441 35.7663C24.7238 35.7663 28.0131 34.5681 30.6058 32.3921C36.6977 27.2809 37.4955 18.1662 32.3843 12.0755C29.6369 8.80136 25.6074 6.92368 21.3297 6.92368C17.9492 6.92368 14.6599 8.1218 12.0668 10.2978ZM12.0668 10.2978L12.1311 10.3744L12.0668 10.2978ZM29.9669 31.6308L29.9669 31.6308C27.5529 33.6572 24.4906 34.772 21.3441 34.772C17.3601 34.772 13.6089 33.0244 11.0512 29.9756L11.0512 29.9755C8.74564 27.2284 7.64788 23.7473 7.96047 20.1747L7.96047 20.1747C8.27268 16.6022 9.95783 13.3643 12.7057 11.0591L12.7058 11.0591C15.1201 9.03276 18.1829 7.91793 21.3297 7.91793C25.313 7.91793 29.0646 9.66558 31.623 12.7144C36.3816 18.3854 35.6387 26.8714 29.9669 31.6308Z" fill="white" stroke="white" stroke-width="0.2"/>
<path d="M8.83275 6.444C12.3299 3.51013 16.7663 1.89426 21.3244 1.89426C27.0951 1.89426 32.5298 4.42684 36.2354 8.84235C43.129 17.0574 42.0537 29.3502 33.8378 36.2442L33.9021 36.3208L33.8378 36.2442C30.3406 39.1796 25.9043 40.7955 21.3462 40.7955C15.5755 40.7955 10.1408 38.2629 6.43519 33.8474C-0.457658 25.6308 0.617665 13.338 8.83275 6.444ZM8.83275 6.444L8.76848 6.36739L8.83275 6.444ZM38.7023 37.0027L38.6381 36.9261L38.5615 36.9903L36.5365 38.6883L34.8494 36.6774C43.1389 29.3746 44.1361 16.7102 36.9967 8.2034C33.1018 3.56105 27.3895 0.9 21.3244 0.9C16.5327 0.9 11.8697 2.59763 8.19383 5.68269C-0.441336 12.9285 -1.5719 25.85 5.67389 34.4863L5.75049 34.4221L5.6739 34.4863C9.56875 39.1271 15.281 41.7897 21.3462 41.7897C25.9717 41.7897 30.4697 40.1957 34.083 37.3102L35.7744 39.3288L33.7506 41.0268L33.674 41.091L33.7383 41.1676L45.1125 54.7211L45.1768 54.7977L45.2534 54.7334L50.0643 50.697L50.1409 50.6327L50.0766 50.5561L38.7023 37.0027ZM35.075 41.2134L38.5157 38.3263L48.7399 50.5103L45.2992 53.3974L35.075 41.2134Z" fill="white" stroke="white" stroke-width="0.2"/>
</svg>
