<?xml version="1.0" encoding="iso-8859-1"?>
<!-- Generator: Adobe Illustrator 19.0.0, SVG Export Plug-In . SVG Version: 6.00 Build 0)  -->
<svg version="1.1" id="Capa_1" xmlns="http://www.w3.org/2000/svg" xmlns:xlink="http://www.w3.org/1999/xlink" x="0px" y="0px"
	 viewBox="0 0 480 480" style="enable-background:new 0 0 480 480;" xml:space="preserve">
<g>
	<g>
		<path d="M245.656,189.088l-26.512-26.512c-22.577-22.453-35.232-53.007-35.144-84.848c0-4.418-3.582-8-8-8s-8,3.582-8,8
			c-0.098,36.087,14.245,70.713,39.832,96.16l26.512,26.512c3.124,3.123,8.188,3.123,11.312,0
			C248.779,197.276,248.779,192.212,245.656,189.088z"/>
	</g>
</g>
<g>
	<g>
		<path d="M272.168,306.112L245.656,279.6c-3.069-3.178-8.134-3.266-11.312-0.196c-3.178,3.07-3.266,8.134-0.196,11.312
			c0.064,0.067,0.13,0.132,0.196,0.196l26.512,26.512c22.577,22.453,35.232,53.007,35.144,84.848c0,4.418,3.582,8,8,8s8-3.582,8-8
			C312.098,366.185,297.755,331.559,272.168,306.112z"/>
	</g>
</g>
<g>
	<g>
		<path d="M384,464h-24v-24c0-4.418-3.582-8-8-8h-8v-29.728c0.12-44.576-17.596-87.348-49.2-118.784L251.312,240l43.488-43.488
			c31.604-31.436,49.32-74.208,49.2-118.784V48h8c4.418,0,8-3.582,8-8V16h24c4.418,0,8-3.582,8-8s-3.582-8-8-8H96
			c-4.418,0-8,3.582-8,8s3.582,8,8,8h24v24c0,4.418,3.582,8,8,8h8v29.728c-0.12,44.576,17.596,87.348,49.2,118.784L228.688,240
			L185.2,283.488c-31.604,31.436-49.32,74.208-49.2,118.784V432h-8c-4.418,0-8,3.582-8,8v24H96c-4.418,0-8,3.582-8,8s3.582,8,8,8
			h288c4.418,0,8-3.582,8-8S388.418,464,384,464z M136,16h208v16H136V16z M196.512,185.2C167.92,156.756,151.892,118.058,152,77.728
			V48h176v29.728c0.108,40.33-15.92,79.028-44.512,107.472L240,228.688L196.512,185.2z M152,402.272
			c-0.108-40.33,15.92-79.028,44.512-107.472L240,251.312l43.488,43.488c28.592,28.444,44.62,67.142,44.512,107.472V432H152V402.272
			z M344,464H136v-16h208V464z"/>
	</g>
</g>
<g>
</g>
<g>
</g>
<g>
</g>
<g>
</g>
<g>
</g>
<g>
</g>
<g>
</g>
<g>
</g>
<g>
</g>
<g>
</g>
<g>
</g>
<g>
</g>
<g>
</g>
<g>
</g>
<g>
</g>
</svg>
