<svg width="20" height="20" viewBox="0 0 20 20" fill="none" xmlns="http://www.w3.org/2000/svg">
<path d="M19.1314 14.1709L15.0714 12.1162C14.5064 11.8286 13.7949 11.9724 13.3972 12.4655L11.9114 14.3353C10.4674 13.5751 9.35819 12.8354 8.0816 11.582C6.7213 10.2464 5.98883 9.13689 5.23543 7.76022L7.11892 6.32192C7.62119 5.93152 7.78861 5.23292 7.47469 4.67815L5.40285 0.712539C5.02616 0.0139346 4.12627 -0.212084 3.47751 0.219406L0.882473 1.90428C0.296497 2.29467 -0.0383456 2.97273 0.00350978 3.67133C0.0453652 4.39049 0.150004 5.29456 0.317425 5.93152C1.07082 8.76704 2.8706 11.7053 5.40285 14.1915C7.9351 16.6982 10.9278 18.4653 13.8158 19.205C14.4645 19.3694 15.3854 19.4516 16.1388 19.5132C16.8712 19.5543 17.5618 19.205 17.9595 18.6091L19.6337 16.0407C20.0732 15.3832 19.822 14.5202 19.1314 14.1709Z" fill="white"/>
</svg>
