<svg width="21" height="17" viewBox="0 0 21 17" fill="none" xmlns="http://www.w3.org/2000/svg">
<path d="M20.2176 0C20.1488 0 20.0799 -1.20252e-06 19.9765 0.0334425L0.409185 7.25597C-0.142007 7.45663 -0.142005 8.22568 0.443637 8.3929L4.99098 9.86419L7.71249 15.1808C7.74693 15.2811 7.85028 15.348 7.98804 15.348C8.05695 15.348 8.12586 15.3145 8.16035 15.2811L10.7096 13.1745L7.85028 11.0679L8.09144 13.8433L6.02446 9.69697L16.945 3.31031L7.88472 11.1014L14.9813 16.3177C15.2225 16.4849 15.4981 16.5851 15.7737 16.5851C16.3249 16.5851 16.876 16.2173 17.0139 15.6489L20.8378 0.769051C20.9067 0.367804 20.5966 0 20.2176 0Z" fill="white"/>
</svg>
