<svg width="14" height="15" viewBox="0 0 14 15" fill="none" xmlns="http://www.w3.org/2000/svg">
<path fill-rule="evenodd" clip-rule="evenodd" d="M6.99643 0.546875C3.16417 0.546875 0.0546875 3.65636 0.0546875 7.48862C0.0546875 11.3209 3.16417 14.4304 6.99643 14.4304C10.8212 14.4304 13.9382 11.3209 13.9382 7.48862C13.9382 3.65636 10.8212 0.546875 6.99643 0.546875ZM11.5816 3.7467C12.4098 4.75559 12.9067 6.04306 12.9218 7.43592C12.726 7.39827 10.7685 6.99924 8.79587 7.24769C8.75069 7.14982 8.71304 7.0444 8.66788 6.939C8.54741 6.6529 8.41188 6.35927 8.27637 6.0807C10.4598 5.19228 11.4536 3.91234 11.5816 3.7467ZM6.99643 1.57082C8.50224 1.57082 9.88005 2.13549 10.9266 3.06156C10.8212 3.21214 9.92521 4.40926 7.8171 5.1998C6.84585 3.41543 5.7692 1.9548 5.60357 1.72893C6.04777 1.62352 6.51458 1.57082 6.99643 1.57082ZM4.47422 2.12797C4.63232 2.33878 5.68639 3.80694 6.67268 5.55366C3.90201 6.2915 1.45509 6.27645 1.19157 6.27645C1.57554 4.43938 2.81784 2.91098 4.47422 2.12797ZM1.06357 7.49614C1.06357 7.43592 1.06357 7.37569 1.06357 7.31545C1.31956 7.32298 4.19565 7.36063 7.15454 6.47221C7.32771 6.80348 7.48581 7.14228 7.63639 7.48109C7.5611 7.50368 7.47829 7.52627 7.403 7.54885C4.34623 8.53516 2.71996 11.2305 2.58444 11.4564C1.64331 10.4099 1.06357 9.01701 1.06357 7.49614ZM6.99643 13.4215C5.62616 13.4215 4.36128 12.9547 3.35992 12.1717C3.46533 11.9533 4.66998 9.63438 8.01284 8.46739C8.02791 8.45987 8.03543 8.45987 8.05049 8.45233C8.88621 10.6132 9.22502 12.4276 9.31536 12.9472C8.60011 13.2558 7.8171 13.4215 6.99643 13.4215ZM10.3017 12.4051C10.2414 12.0437 9.92522 10.312 9.14973 8.18129C11.0094 7.88766 12.6357 8.36951 12.8389 8.43728C12.583 10.0861 11.6343 11.5091 10.3017 12.4051Z" fill="black"/>
</svg>
