<svg width="13" height="13" viewBox="0 0 13 13" fill="none" xmlns="http://www.w3.org/2000/svg">
<path d="M6.5 0C2.91038 0 0 2.91038 0 6.5C0 7.7194 0.342518 8.85629 0.926758 9.83146L0.0581869 13L3.29443 12.1505C4.2409 12.6886 5.33352 13 6.5 13C10.0896 13 13 10.0896 13 6.5C13 2.91038 10.0896 0 6.5 0ZM4.27515 3.46794C4.38077 3.46794 4.4893 3.46729 4.58301 3.47217C4.69893 3.47488 4.82509 3.48337 4.94588 3.75041C5.08942 4.06782 5.40197 4.86412 5.44206 4.94482C5.48214 5.02553 5.51054 5.12061 5.45475 5.22624C5.40167 5.33457 5.37406 5.40014 5.29606 5.49601C5.21535 5.58918 5.12692 5.70489 5.05379 5.77531C4.97308 5.85602 4.88974 5.94451 4.98291 6.10539C5.07608 6.26626 5.39964 6.79365 5.87793 7.2194C6.49272 7.76865 7.01144 7.93744 7.17285 8.01815C7.33427 8.09886 7.42775 8.08628 7.52092 7.97795C7.61679 7.87232 7.92357 7.50989 8.0319 7.34847C8.13753 7.18705 8.24535 7.21498 8.3916 7.26807C8.54002 7.32115 9.3315 7.71104 9.49292 7.79175C9.65434 7.87246 9.76016 7.9124 9.80078 7.97795C9.84249 8.04565 9.84253 8.36798 9.70874 8.7439C9.57495 9.11927 8.91796 9.48227 8.62329 9.50773C8.32592 9.53536 8.04839 9.6414 6.69043 9.10677C5.05243 8.46165 4.01943 6.78395 3.93872 6.67562C3.85801 6.56999 3.2828 5.80337 3.2828 5.01253C3.2828 4.21899 3.69886 3.83036 3.84456 3.66895C3.99298 3.50753 4.16681 3.46794 4.27515 3.46794Z" fill="black"/>
</svg>
