<svg width="14" height="13" viewBox="0 0 14 13" fill="none" xmlns="http://www.w3.org/2000/svg">
<path d="M13.2549 7.26376C13.4506 7.54061 13.5997 7.84106 13.7039 8.17029C13.8075 8.49837 13.8599 8.83796 13.8599 9.18964C13.8599 9.69326 13.758 10.1664 13.5565 10.6096C13.3545 11.0516 13.0765 11.4413 12.7219 11.7797C12.3674 12.1147 11.9547 12.3777 11.4804 12.5688C11.0061 12.7599 10.5071 12.8537 9.97645 12.8537C9.22072 12.8537 8.54269 12.6753 7.94121 12.319C7.77429 12.3421 7.60623 12.3588 7.43643 12.3714C7.26606 12.3829 7.09742 12.3875 6.92877 12.3875C6.04584 12.3875 5.21701 12.2292 4.44171 11.9138C3.66814 11.5967 2.99069 11.1662 2.40706 10.6176C1.82515 10.0714 1.36642 9.42735 1.03604 8.69004C0.702777 7.95272 0.536436 7.16476 0.536436 6.3273C0.536436 6.16499 0.544494 6.01073 0.561761 5.86799C0.577302 5.72525 0.598598 5.57963 0.62047 5.43401C0.206056 4.85901 0 4.24141 0 3.57893C0 3.08623 0.101877 2.62059 0.303904 2.18258C0.505355 1.74514 0.781631 1.36469 1.13619 1.04179C1.49074 0.718318 1.90573 0.463914 2.37713 0.277427C2.84967 0.0909409 3.351 0 3.88168 0C4.26386 0 4.62244 0.0448948 4.96319 0.136411C5.30393 0.229079 5.62279 0.358008 5.91691 0.526651C6.08325 0.503053 6.25362 0.486361 6.42169 0.473123C6.59206 0.462763 6.76243 0.456431 6.92877 0.456431C7.81459 0.456431 8.64629 0.610685 9.42389 0.917467C10.1998 1.22195 10.8789 1.64384 11.4626 2.17913C12.0462 2.71672 12.5061 3.33891 12.8399 4.04687C13.1726 4.75598 13.339 5.51689 13.339 6.3273C13.3395 6.62602 13.3119 6.93856 13.2549 7.26376ZM9.97645 9.10675C10.2493 8.74759 10.384 8.3257 10.384 7.84106C10.384 7.45946 10.308 7.13886 10.1583 6.8787C10.0023 6.61969 9.78248 6.4027 9.49872 6.22945C9.23798 6.06138 8.89897 5.91231 8.48398 5.77878C8.06669 5.67402 7.62407 5.57157 7.15613 5.46681L6.64329 5.34997C6.50573 5.32062 6.39637 5.29587 6.31406 5.27342C6.22254 5.25097 6.13793 5.22622 6.05735 5.19687C5.98138 5.16982 5.9008 5.13816 5.82022 5.10363C5.66366 5.03801 5.53243 4.9488 5.42825 4.84404C5.34767 4.75368 5.30738 4.63223 5.30738 4.48143C5.30738 4.26098 5.43861 4.06414 5.69935 3.88974C5.99462 3.72685 6.3555 3.64857 6.78431 3.65375C7.27988 3.65375 7.6281 3.72685 7.82437 3.87362C8.06151 4.04745 8.24742 4.26156 8.38038 4.51424C8.49607 4.69957 8.61348 4.83771 8.73493 4.92865C8.85062 5.01729 9.01121 5.06506 9.21323 5.07139C9.44059 5.07139 9.6288 4.99599 9.78708 4.84404C9.94191 4.70245 10.0162 4.54302 10.0121 4.36344C10.0121 4.15565 9.95342 3.95132 9.83831 3.75448C9.72434 3.56972 9.53268 3.37287 9.26849 3.16394C9.13495 3.07415 8.98818 2.99184 8.8299 2.91644C8.67104 2.84046 8.49261 2.7737 8.29864 2.71729C8.09547 2.66204 7.88193 2.61944 7.65688 2.59066C7.43125 2.56246 7.18491 2.54922 6.91208 2.54922C6.22485 2.54922 5.64524 2.63326 5.17327 2.80133C4.66619 2.9763 4.28228 3.21689 4.02212 3.52885C3.76196 3.82585 3.63188 4.18271 3.63188 4.59942C3.63188 5.03801 3.75793 5.39487 4.00658 5.66999C4.25695 5.96757 4.59597 6.19261 5.02477 6.34514C5.43228 6.50803 5.95317 6.65077 6.59206 6.77395C6.83093 6.83035 7.03986 6.87813 7.22462 6.91439C7.4065 6.95007 7.57169 6.99094 7.71616 7.03526C7.98841 7.10951 8.20943 7.23383 8.37807 7.41053C8.55823 7.56363 8.64859 7.76048 8.64859 8.00338C8.64859 8.33893 8.48398 8.61061 8.15878 8.81781C7.85142 9.0302 7.43586 9.13496 6.91266 9.12747C6.49364 9.12747 6.19031 9.07913 5.99807 8.98128C5.75921 8.87249 5.58308 8.73435 5.46739 8.56974C5.32062 8.3821 5.2032 8.17375 5.10881 7.9487C5.0265 7.73516 4.91541 7.574 4.77037 7.46521C4.63511 7.35528 4.47682 7.3006 4.29091 7.3006C4.05378 7.3006 3.85808 7.36679 3.70325 7.49687C3.54842 7.64479 3.47417 7.81804 3.47763 8.01258C3.47763 8.3516 3.6031 8.69061 3.85175 9.0302C4.09867 9.37957 4.41581 9.6524 4.80202 9.84867C5.36782 10.1411 6.07865 10.289 6.9328 10.2947C7.62983 10.2947 8.25087 10.1911 8.79134 9.9845C9.32202 9.74909 9.71801 9.45728 9.97645 9.10675Z" fill="black"/>
</svg>
