<svg width="16" height="12" viewBox="0 0 16 12" fill="none" xmlns="http://www.w3.org/2000/svg">
<path d="M14.7785 0.0175781C14.7313 0.0175781 14.6841 0.0175773 14.6133 0.0404923L1.20615 4.98922C0.828481 5.12671 0.828482 5.65365 1.22975 5.76823L4.3455 6.77633L6.21022 10.4192C6.23383 10.4879 6.30464 10.5337 6.39903 10.5337C6.44624 10.5337 6.49346 10.5108 6.51709 10.4879L8.26379 9.04449L6.30463 7.60111L6.46988 9.50273L5.05362 6.66175L12.5361 2.28574L6.32824 7.62402L11.1907 11.1981C11.3559 11.3127 11.5447 11.3814 11.7336 11.3814C12.1113 11.3814 12.4889 11.1294 12.5833 10.7399L15.2034 0.544516C15.2506 0.26959 15.0381 0.0175781 14.7785 0.0175781Z" fill="black"/>
</svg>
