<svg width="13" height="13" viewBox="0 0 13 13" fill="none" xmlns="http://www.w3.org/2000/svg">
<path d="M9.4658 0.333008H3.82469C1.98873 0.333008 0.495117 1.80839 0.495117 3.62139V9.19223C0.495117 11.0058 1.98873 12.4806 3.82469 12.4806H9.4659C11.3018 12.4806 12.7954 11.0058 12.7954 9.19223V3.62139C12.7954 1.80839 11.3018 0.333008 9.4658 0.333008ZM6.64524 9.72815C4.79071 9.72815 3.28199 8.23841 3.28199 6.40681C3.28199 4.5752 4.79071 3.08547 6.64524 3.08547C8.49977 3.08547 10.0085 4.5752 10.0085 6.40681C10.0085 8.23841 8.49977 9.72815 6.64524 9.72815ZM10.0889 3.86862C9.5409 3.86862 9.09514 3.42839 9.09514 2.88715C9.09514 2.34591 9.5409 1.90569 10.0889 1.90569C10.637 1.90569 11.0829 2.34591 11.0829 2.88715C11.0829 3.42839 10.637 3.86862 10.0889 3.86862Z" fill="black"/>
<path d="M6.6451 3.79785C5.18827 3.79785 4.00293 4.96859 4.00293 6.40729C4.00293 7.84599 5.18827 9.01673 6.6451 9.01673C8.102 9.01673 9.28724 7.84599 9.28724 6.40729C9.28724 4.96859 8.102 3.79785 6.6451 3.79785Z" fill="black"/>
<path d="M10.0891 2.61816C9.93878 2.61816 9.81641 2.73939 9.81641 2.88772C9.81641 3.03606 9.93878 3.15728 10.0891 3.15728C10.2396 3.15728 10.3619 3.03606 10.3619 2.88772C10.3619 2.73939 10.2396 2.61816 10.0891 2.61816Z" fill="black"/>
</svg>
