<svg width="13" height="13" viewBox="0 0 13 13" fill="none" xmlns="http://www.w3.org/2000/svg">
<path d="M9.22076 0H3.07684C1.38702 0 0 1.38702 0 3.08661V9.23053C0 10.9204 1.38702 12.3074 3.07684 12.3074H9.22076C10.9204 12.3074 12.3074 10.9204 12.3074 9.22076V3.08661C12.3074 1.38702 10.9204 0 9.22076 0ZM5.82158 2.52985C5.84112 2.22705 6.12438 2.33449 6.2709 2.31496C8.10724 2.37356 9.68961 4.02432 9.67008 5.80205C9.67008 5.97787 9.72869 6.23183 9.46496 6.23183C9.21099 6.23183 9.27937 5.9681 9.25006 5.79228C9.00587 3.9071 8.12677 3.01824 6.21229 2.7252C6.05601 2.70567 5.81182 2.73497 5.82158 2.52985ZM8.56632 5.88019C8.27329 5.91926 8.3319 5.6653 8.30259 5.49925C8.10724 4.34665 7.69699 3.92664 6.51509 3.67268C6.33927 3.63361 6.06578 3.66291 6.11462 3.39918C6.15369 3.14522 6.39788 3.23313 6.58347 3.25266C7.76537 3.38941 8.73238 4.39549 8.72261 5.49925C8.70307 5.61646 8.78121 5.84112 8.56632 5.88019ZM7.83374 5.27459C7.83374 5.43087 7.81421 5.57739 7.63839 5.59692C7.5114 5.61646 7.43326 5.50901 7.41373 5.38203C7.36489 4.91318 7.11093 4.62992 6.62254 4.55177C6.47602 4.53224 6.33927 4.4834 6.40765 4.28805C6.45649 4.16106 6.5737 4.14153 6.70068 4.14153C7.22814 4.13176 7.83374 4.74713 7.83374 5.27459ZM9.68961 8.87889C9.48449 9.43565 8.79098 10.0022 8.19515 9.99242C8.10724 9.97288 7.94119 9.94358 7.79467 9.88497C5.17691 8.78121 3.2722 6.96441 2.19775 4.36619C1.83634 3.49686 2.21728 2.75451 3.12568 2.46147C3.29173 2.40287 3.44802 2.40287 3.61407 2.46147C4.00478 2.59822 4.99132 3.93641 5.01086 4.32712C5.03039 4.62992 4.8155 4.79597 4.61038 4.93272C4.2099 5.19645 4.2099 5.52855 4.38572 5.90949C4.76667 6.74952 5.4211 7.33559 6.2709 7.70676C6.5737 7.84351 6.8765 7.83374 7.08162 7.52117C7.4528 6.96441 7.91188 6.99371 8.41004 7.33559C8.664 7.5114 8.91796 7.67746 9.15239 7.86304C9.47472 8.12677 9.88497 8.34166 9.68961 8.87889Z" fill="black"/>
</svg>
