<svg width="13" height="13" viewBox="0 0 13 13" fill="none" xmlns="http://www.w3.org/2000/svg">
<path d="M12.6663 8.14733V12.707H10.0228V8.45271C10.0228 7.384 9.6405 6.65464 8.68367 6.65464C7.95325 6.65464 7.51858 7.14618 7.32735 7.62165C7.25762 7.79163 7.23967 8.02822 7.23967 8.26616V12.707H4.59536C4.59536 12.707 4.63098 5.50163 4.59536 4.75509H7.23941V5.88225C7.23405 5.89068 7.22708 5.89977 7.22203 5.90794H7.23941V5.88225C7.5907 5.34119 8.21806 4.56828 9.62229 4.56828C11.362 4.56825 12.6663 5.70481 12.6663 8.14733ZM1.82931 0.921875C0.924699 0.921875 0.333008 1.51523 0.333008 2.29551C0.333008 3.05879 0.907581 3.67015 1.79421 3.67015H1.81188C2.73401 3.67015 3.30749 3.0589 3.30749 2.29551C3.29012 1.51523 2.73401 0.921875 1.82931 0.921875ZM0.490056 12.707H3.13335V4.75509H0.490056V12.707Z" fill="black"/>
</svg>
