<svg width="13" height="13" viewBox="0 0 13 13" fill="none" xmlns="http://www.w3.org/2000/svg">
<path fill-rule="evenodd" clip-rule="evenodd" d="M6.20825 0.781006C2.97447 0.781006 0.350586 3.40489 0.350586 6.63867C0.350586 9.87245 2.97447 12.4963 6.20825 12.4963C9.43568 12.4963 12.0659 9.87245 12.0659 6.63867C12.0659 3.40489 9.43568 0.781006 6.20825 0.781006ZM10.0774 3.48112C10.7762 4.33245 11.1955 5.41886 11.2082 6.5942C11.043 6.56243 9.39121 6.22572 7.72667 6.43536C7.68855 6.35278 7.65678 6.26383 7.61867 6.17488C7.51702 5.93347 7.40265 5.68569 7.2883 5.45062C9.13073 4.70094 9.96935 3.6209 10.0774 3.48112ZM6.20825 1.64504C7.47889 1.64504 8.64153 2.12153 9.52462 2.90298C9.43568 3.03004 8.67965 4.04021 6.90075 4.70729C6.08119 3.20158 5.17267 1.96906 5.03291 1.77846C5.40774 1.68952 5.80165 1.64504 6.20825 1.64504ZM4.07993 2.11518C4.21334 2.29307 5.10279 3.53195 5.93506 5.00589C3.59708 5.6285 1.53229 5.6158 1.30992 5.6158C1.63393 4.06562 2.68222 2.77592 4.07993 2.11518ZM1.20192 6.64502C1.20192 6.5942 1.20192 6.54338 1.20192 6.49254C1.41793 6.49889 3.84486 6.53067 6.34166 5.78099C6.48779 6.06053 6.6212 6.34642 6.74827 6.63232C6.68474 6.65138 6.61485 6.67044 6.55132 6.68949C3.97192 7.52177 2.59962 9.79622 2.48527 9.98682C1.69111 9.10372 1.20192 7.92838 1.20192 6.64502ZM6.20825 11.645C5.05197 11.645 3.98462 11.2511 3.13964 10.5904C3.2286 10.4061 4.24511 8.44933 7.06593 7.46459C7.07864 7.45824 7.08499 7.45824 7.0977 7.45188C7.80291 9.27525 8.08881 10.8064 8.16504 11.2448C7.56149 11.5052 6.90075 11.645 6.20825 11.645ZM8.99732 10.7873C8.94649 10.4824 8.67966 9.02112 8.02527 7.22317C9.59452 6.97539 10.9668 7.382 11.1383 7.43918C10.9223 8.83053 10.1218 10.0313 8.99732 10.7873Z" fill="white"/>
</svg>
