<svg width="16" height="15" viewBox="0 0 16 15" fill="none" xmlns="http://www.w3.org/2000/svg">
<path d="M11.0771 0H4.11139C1.84433 0 0 1.82182 0 4.06053V10.9395C0 13.1788 1.84433 15 4.11139 15H11.0772C13.3442 15 15.1885 13.1788 15.1885 10.9395V4.06053C15.1885 1.82182 13.3442 0 11.0771 0ZM7.59425 11.6012C5.30425 11.6012 3.44127 9.76168 3.44127 7.5C3.44127 5.23831 5.30425 3.39877 7.59425 3.39877C9.88424 3.39877 11.7473 5.23831 11.7473 7.5C11.7473 9.76168 9.88424 11.6012 7.59425 11.6012ZM11.8466 4.36581C11.1698 4.36581 10.6194 3.82222 10.6194 3.15389C10.6194 2.48556 11.1698 1.94196 11.8466 1.94196C12.5233 1.94196 13.0739 2.48556 13.0739 3.15389C13.0739 3.82222 12.5233 4.36581 11.8466 4.36581Z" fill="white"/>
<path d="M11.0771 0H4.11139C1.84433 0 0 1.82182 0 4.06053V10.9395C0 13.1788 1.84433 15 4.11139 15H11.0772C13.3442 15 15.1885 13.1788 15.1885 10.9395V4.06053C15.1885 1.82182 13.3442 0 11.0771 0ZM7.59425 11.6012C5.30425 11.6012 3.44127 9.76168 3.44127 7.5C3.44127 5.23831 5.30425 3.39877 7.59425 3.39877C9.88424 3.39877 11.7473 5.23831 11.7473 7.5C11.7473 9.76168 9.88424 11.6012 7.59425 11.6012ZM11.8466 4.36581C11.1698 4.36581 10.6194 3.82222 10.6194 3.15389C10.6194 2.48556 11.1698 1.94196 11.8466 1.94196C12.5233 1.94196 13.0739 2.48556 13.0739 3.15389C13.0739 3.82222 12.5233 4.36581 11.8466 4.36581Z" fill="url(#paint0_linear)"/>
<path d="M7.59461 4.27844C5.7957 4.27844 4.33203 5.72408 4.33203 7.5006C4.33203 9.27713 5.7957 10.7228 7.59461 10.7228C9.39361 10.7228 10.8572 9.27713 10.8572 7.5006C10.8572 5.72408 9.39361 4.27844 7.59461 4.27844Z" fill="white"/>
<path d="M7.59461 4.27844C5.7957 4.27844 4.33203 5.72408 4.33203 7.5006C4.33203 9.27713 5.7957 10.7228 7.59461 10.7228C9.39361 10.7228 10.8572 9.27713 10.8572 7.5006C10.8572 5.72408 9.39361 4.27844 7.59461 4.27844Z" fill="url(#paint1_linear)"/>
<path d="M11.8456 2.82172C11.6599 2.82172 11.5088 2.9714 11.5088 3.15457C11.5088 3.33774 11.6599 3.48742 11.8456 3.48742C12.0313 3.48742 12.1824 3.33774 12.1824 3.15457C12.1824 2.9714 12.0313 2.82172 11.8456 2.82172Z" fill="white"/>
<path d="M11.8456 2.82172C11.6599 2.82172 11.5088 2.9714 11.5088 3.15457C11.5088 3.33774 11.6599 3.48742 11.8456 3.48742C12.0313 3.48742 12.1824 3.33774 12.1824 3.15457C12.1824 2.9714 12.0313 2.82172 11.8456 2.82172Z" fill="url(#paint2_linear)"/>
<defs>
<linearGradient id="paint0_linear" x1="7.59425" y1="0" x2="7.59425" y2="15" gradientUnits="userSpaceOnUse">
<stop stop-color="#9664FF" stop-opacity="0.92"/>
<stop offset="0.520833" stop-color="#FF2149" stop-opacity="0.67"/>
<stop offset="1" stop-color="#FFD749" stop-opacity="0.92"/>
</linearGradient>
<linearGradient id="paint1_linear" x1="7.5946" y1="4.27844" x2="7.5946" y2="10.7228" gradientUnits="userSpaceOnUse">
<stop stop-color="#9664FF" stop-opacity="0.92"/>
<stop offset="0.520833" stop-color="#FF2149" stop-opacity="0.67"/>
<stop offset="1" stop-color="#FFD749" stop-opacity="0.92"/>
</linearGradient>
<linearGradient id="paint2_linear" x1="11.8456" y1="2.82172" x2="11.8456" y2="3.48742" gradientUnits="userSpaceOnUse">
<stop stop-color="#9664FF" stop-opacity="0.92"/>
<stop offset="0.520833" stop-color="#FF2149" stop-opacity="0.67"/>
<stop offset="1" stop-color="#FFD749" stop-opacity="0.92"/>
</linearGradient>
</defs>
</svg>
