<svg width="16" height="14" viewBox="0 0 16 14" fill="none" xmlns="http://www.w3.org/2000/svg">
<path d="M1.53568 4.77031C1.73808 4.91313 2.34818 5.33731 3.36602 6.04264C4.38389 6.74797 5.16364 7.29105 5.70532 7.67192C5.76483 7.71367 5.89127 7.80443 6.08469 7.94431C6.27814 8.08429 6.43888 8.1974 6.56679 8.28368C6.69479 8.36993 6.84953 8.46669 7.03116 8.5738C7.21273 8.68082 7.38389 8.76131 7.5446 8.8146C7.70534 8.86833 7.85413 8.89494 7.99102 8.89494H7.99999H8.009C8.14588 8.89494 8.29474 8.8683 8.45548 8.8146C8.61613 8.76131 8.78744 8.68072 8.96885 8.5738C9.15036 8.46657 9.3051 8.3699 9.4331 8.28368C9.5611 8.1974 9.72172 8.08429 9.91523 7.94431C10.1086 7.8043 10.2352 7.71367 10.2947 7.67192C10.8423 7.29105 12.2352 6.32375 14.4732 4.77012C14.9077 4.46668 15.2708 4.10054 15.5624 3.67194C15.8542 3.24354 16 2.79412 16 2.32393C16 1.93102 15.8585 1.59468 15.5758 1.31494C15.293 1.03515 14.9582 0.895325 14.5714 0.895325H1.42851C0.970208 0.895325 0.617513 1.05006 0.370489 1.35954C0.123496 1.66908 0 2.05598 0 2.52023C0 2.89522 0.163744 3.30158 0.491077 3.73906C0.818378 4.17656 1.16669 4.52034 1.53568 4.77031Z" fill="#FFE03D"/>
<path d="M15.107 5.72561C13.1548 7.04691 11.6725 8.07379 10.6607 8.80601C10.3215 9.05591 10.0462 9.25099 9.83485 9.39078C9.62348 9.53066 9.34237 9.67352 8.99111 9.81928C8.63998 9.96526 8.31274 10.038 8.00912 10.038H8.00001H7.99104C7.68747 10.038 7.36005 9.96526 7.00892 9.81928C6.65779 9.67352 6.37649 9.53066 6.16518 9.39078C5.95393 9.25099 5.67861 9.05591 5.33936 8.80601C4.53574 8.21677 3.0566 7.18983 0.901876 5.72561C0.562504 5.49957 0.26191 5.24047 0 4.94885V12.0379C0 12.431 0.139821 12.7672 0.419618 13.0469C0.699353 13.3268 1.03572 13.4667 1.4286 13.4667H14.5715C14.9643 13.4667 15.3006 13.3268 15.5804 13.0469C15.8602 12.7671 16 12.4311 16 12.0379V4.94885C15.744 5.23444 15.4465 5.49353 15.107 5.72561Z" fill="#FFE03D"/>
</svg>
