<svg width="14" height="13" viewBox="0 0 14 13" fill="none" xmlns="http://www.w3.org/2000/svg">
<path d="M13.3936 7.6615V12.4964H10.5478V7.98531C10.5478 6.8521 10.1362 6.07873 9.10613 6.07873C8.3198 6.07873 7.85185 6.59993 7.64598 7.1041C7.57091 7.28433 7.55159 7.5352 7.55159 7.7875V12.4964H4.70486C4.70486 12.4964 4.7432 4.85613 4.70486 4.06455H7.55131V5.25972C7.54553 5.26866 7.53803 5.2783 7.5326 5.28696H7.55131V5.25972C7.92949 4.68602 8.60487 3.86646 10.1166 3.86646C11.9895 3.86643 13.3936 5.07158 13.3936 7.6615ZM1.72706 0C0.753197 0 0.116211 0.629162 0.116211 1.45653C0.116211 2.26587 0.734768 2.91413 1.68928 2.91413H1.70829C2.70101 2.91413 3.3184 2.26599 3.3184 1.45653C3.29969 0.629162 2.70101 0 1.72706 0ZM0.285282 12.4964H3.13093V4.06455H0.285282V12.4964Z" fill="white"/>
</svg>
