<svg width="12" height="13" viewBox="0 0 12 13" fill="none" xmlns="http://www.w3.org/2000/svg">
<path d="M8.66611 0.781006H3.22574C1.45511 0.781006 0.0146484 2.20389 0.0146484 3.95237V9.32497C0.0146484 11.074 1.45511 12.4963 3.22574 12.4963H8.66621C10.4367 12.4963 11.8772 11.074 11.8772 9.32497V3.95237C11.8772 2.20389 10.4367 0.781006 8.66611 0.781006ZM5.94592 9.84182C4.15739 9.84182 2.70235 8.40509 2.70235 6.63867C2.70235 4.87224 4.15739 3.43552 5.94592 3.43552C7.73446 3.43552 9.18951 4.87224 9.18951 6.63867C9.18951 8.40509 7.73446 9.84182 5.94592 9.84182ZM9.26708 4.1908C8.73853 4.1908 8.30864 3.76624 8.30864 3.24426C8.30864 2.72228 8.73853 2.29772 9.26708 2.29772C9.79562 2.29772 10.2256 2.72228 10.2256 3.24426C10.2256 3.76624 9.79562 4.1908 9.26708 4.1908Z" fill="white"/>
<path d="M5.94659 4.12268C4.5416 4.12268 3.39844 5.25176 3.39844 6.63926C3.39844 8.02676 4.5416 9.15584 5.94659 9.15584C7.35164 9.15584 8.49471 8.02676 8.49471 6.63926C8.49471 5.25176 7.35164 4.12268 5.94659 4.12268Z" fill="white"/>
<path d="M9.26596 2.98511C9.12094 2.98511 9.00293 3.10202 9.00293 3.24507C9.00293 3.38813 9.12094 3.50504 9.26596 3.50504C9.41102 3.50504 9.52903 3.38813 9.52903 3.24507C9.52903 3.10202 9.41102 2.98511 9.26596 2.98511Z" fill="white"/>
</svg>
