<svg width="13" height="10" viewBox="0 0 13 10" fill="none" xmlns="http://www.w3.org/2000/svg">
<path d="M1.1994 3.06893C1.35748 3.18047 1.83398 3.51177 2.62893 4.06265C3.42391 4.61352 4.03292 5.03768 4.45598 5.33515C4.50246 5.36776 4.60121 5.43864 4.75227 5.54789C4.90337 5.65722 5.02891 5.74556 5.12881 5.81295C5.22878 5.88031 5.34963 5.95588 5.49149 6.03954C5.6333 6.12312 5.76698 6.18599 5.8925 6.22761C6.01804 6.26957 6.13425 6.29036 6.24116 6.29036H6.24817H6.2552C6.36211 6.29036 6.47837 6.26955 6.60391 6.22761C6.72938 6.18599 6.86318 6.12305 7.00487 6.03954C7.14663 5.95579 7.26749 5.88029 7.36746 5.81295C7.46743 5.74556 7.59287 5.65722 7.74401 5.54789C7.89506 5.43854 7.99393 5.36776 8.04041 5.33515C8.46804 5.03768 9.55599 4.2822 11.3039 3.06878C11.6433 2.83179 11.9268 2.54582 12.1546 2.21108C12.3825 1.87649 12.4963 1.52548 12.4963 1.15825C12.4963 0.851379 12.3859 0.588691 12.165 0.370212C11.9442 0.151684 11.6827 0.0424805 11.3806 0.0424805H1.1157C0.757753 0.0424805 0.482291 0.163334 0.28936 0.405042C0.0964533 0.646798 0 0.948981 0 1.31157C0 1.60444 0.127888 1.92182 0.383542 2.2635C0.639171 2.6052 0.911214 2.8737 1.1994 3.06893Z" fill="white"/>
<path d="M11.7989 3.81516C10.2742 4.84713 9.11648 5.64914 8.32627 6.22102C8.06128 6.4162 7.84632 6.56856 7.68123 6.67774C7.51615 6.78699 7.29659 6.89856 7.02226 7.01241C6.74802 7.12642 6.49243 7.18326 6.2553 7.18326H6.24819H6.24118C6.00409 7.18326 5.74836 7.12642 5.47412 7.01241C5.19988 6.89856 4.98018 6.78699 4.81514 6.67774C4.65015 6.56856 4.43512 6.4162 4.17016 6.22102C3.54251 5.76081 2.38727 4.95875 0.704385 3.81516C0.439328 3.63862 0.204557 3.43626 0 3.2085V8.74522C0 9.05224 0.109203 9.31478 0.327731 9.53329C0.54621 9.75186 0.808923 9.86111 1.11577 9.86111H11.3807C11.6874 9.86111 11.9501 9.75186 12.1686 9.53329C12.3872 9.31471 12.4964 9.05226 12.4964 8.74522V3.2085C12.2964 3.43154 12.064 3.6339 11.7989 3.81516Z" fill="white"/>
</svg>
